<svg xmlns="http://www.w3.org/2000/svg" width="1120" height="520" viewBox="0 0 1120 520">
<rect width="100%" height="100%" fill="white"/>
<text x="560.0" y="36" text-anchor="middle" font-family="Arial" font-size="24" font-weight="700">Radius-1 Certified Accuracy Summary</text>
<line x1="80" y1="380" x2="1040" y2="380" stroke="#e5e7eb"/>
<text x="68" y="385" text-anchor="end" font-family="Arial" font-size="13">0</text>
<line x1="80" y1="305.0" x2="1040" y2="305.0" stroke="#e5e7eb"/>
<text x="68" y="310.0" text-anchor="end" font-family="Arial" font-size="13">0.25</text>
<line x1="80" y1="230.0" x2="1040" y2="230.0" stroke="#e5e7eb"/>
<text x="68" y="235.0" text-anchor="end" font-family="Arial" font-size="13">0.5</text>
<line x1="80" y1="155.0" x2="1040" y2="155.0" stroke="#e5e7eb"/>
<text x="68" y="160.0" text-anchor="end" font-family="Arial" font-size="13">0.75</text>
<line x1="80" y1="80.0" x2="1040" y2="80.0" stroke="#e5e7eb"/>
<text x="68" y="85.0" text-anchor="end" font-family="Arial" font-size="13">1</text>
<line x1="80" y1="80" x2="80" y2="380" stroke="#111827"/>
<line x1="80" y1="380" x2="1040" y2="380" stroke="#111827"/>
<rect x="116.5" y="367.5" width="26" height="12.5" fill="#2563eb"/>
<rect x="145.5" y="342.5" width="26" height="37.5" fill="#f97316"/>
<rect x="174.5" y="342.5" width="26" height="37.5" fill="#16a34a"/>
<rect x="203.5" y="342.5" width="26" height="37.5" fill="#dc2626"/>
<text x="160.0" y="408" text-anchor="middle" font-family="Arial" font-size="13">Clean</text>
<text x="160.0" y="425" text-anchor="middle" font-family="Arial" font-size="13">Symmetric</text>
<rect x="276.5" y="180.0" width="26" height="200.0" fill="#2563eb"/>
<rect x="305.5" y="180.0" width="26" height="200.0" fill="#f97316"/>
<rect x="334.5" y="180.0" width="26" height="200.0" fill="#16a34a"/>
<text x="320.0" y="408" text-anchor="middle" font-family="Arial" font-size="13">Clean</text>
<text x="320.0" y="425" text-anchor="middle" font-family="Arial" font-size="13">Add/Delete</text>
<rect x="436.5" y="180.0" width="26" height="200.0" fill="#2563eb"/>
<rect x="465.5" y="180.0" width="26" height="200.0" fill="#f97316"/>
<rect x="494.5" y="180.0" width="26" height="200.0" fill="#16a34a"/>
<text x="480.0" y="408" text-anchor="middle" font-family="Arial" font-size="13">Clean</text>
<text x="480.0" y="425" text-anchor="middle" font-family="Arial" font-size="13">Deletion</text>
<rect x="596.5" y="355.0" width="26" height="25.0" fill="#2563eb"/>
<rect x="625.5" y="292.5" width="26" height="87.5" fill="#f97316"/>
<rect x="654.5" y="280.0" width="26" height="100.0" fill="#16a34a"/>
<rect x="683.5" y="280.0" width="26" height="100.0" fill="#dc2626"/>
<text x="640.0" y="408" text-anchor="middle" font-family="Arial" font-size="13">Robust</text>
<text x="640.0" y="425" text-anchor="middle" font-family="Arial" font-size="13">Symmetric</text>
<rect x="756.5" y="205.0" width="26" height="175.0" fill="#2563eb"/>
<rect x="785.5" y="180.0" width="26" height="200.0" fill="#f97316"/>
<rect x="814.5" y="180.0" width="26" height="200.0" fill="#16a34a"/>
<text x="800.0" y="408" text-anchor="middle" font-family="Arial" font-size="13">Robust</text>
<text x="800.0" y="425" text-anchor="middle" font-family="Arial" font-size="13">Add/Delete</text>
<rect x="916.5" y="205.0" width="26" height="175.0" fill="#2563eb"/>
<rect x="945.5" y="180.0" width="26" height="200.0" fill="#f97316"/>
<rect x="974.5" y="180.0" width="26" height="200.0" fill="#16a34a"/>
<text x="960.0" y="408" text-anchor="middle" font-family="Arial" font-size="13">Robust</text>
<text x="960.0" y="425" text-anchor="middle" font-family="Arial" font-size="13">Deletion</text>
<rect x="340" y="476" width="18" height="18" fill="#2563eb"/>
<text x="366" y="490" font-family="Arial" font-size="14">0.02</text>
<rect x="460" y="476" width="18" height="18" fill="#f97316"/>
<text x="486" y="490" font-family="Arial" font-size="14">0.05</text>
<rect x="580" y="476" width="18" height="18" fill="#16a34a"/>
<text x="606" y="490" font-family="Arial" font-size="14">0.1</text>
<rect x="700" y="476" width="18" height="18" fill="#dc2626"/>
<text x="726" y="490" font-family="Arial" font-size="14">0.2</text>
<text x="270" y="490" font-family="Arial" font-size="14" font-weight="700">Noise:</text>
<text transform="translate(24 230.0) rotate(-90)" text-anchor="middle" font-family="Arial" font-size="16">Certified accuracy at radius &gt;= 1</text>
</svg>