<svg xmlns="http://www.w3.org/2000/svg" width="1320" height="610" viewBox="0 0 1320 610">
<rect width="100%" height="100%" fill="white"/>
<text x="660.0" y="36" text-anchor="middle" font-family="Arial" font-size="25" font-weight="700">Radius-1 Certified Accuracy by Certificate Type</text>
<line x1="90" y1="437.0" x2="1220" y2="437.0" stroke="#e5e7eb"/>
<text x="78" y="442.0" text-anchor="end" font-family="Arial" font-size="13" fill="#374151">0</text>
<line x1="90" y1="348.2" x2="1220" y2="348.2" stroke="#e5e7eb"/>
<text x="78" y="353.2" text-anchor="end" font-family="Arial" font-size="13" fill="#374151">0.25</text>
<line x1="90" y1="259.5" x2="1220" y2="259.5" stroke="#e5e7eb"/>
<text x="78" y="264.5" text-anchor="end" font-family="Arial" font-size="13" fill="#374151">0.5</text>
<line x1="90" y1="170.8" x2="1220" y2="170.8" stroke="#e5e7eb"/>
<text x="78" y="175.8" text-anchor="end" font-family="Arial" font-size="13" fill="#374151">0.75</text>
<line x1="90" y1="82.0" x2="1220" y2="82.0" stroke="#e5e7eb"/>
<text x="78" y="87.0" text-anchor="end" font-family="Arial" font-size="13" fill="#374151">1</text>
<line x1="90" y1="82" x2="90" y2="437" stroke="#111827"/>
<line x1="90" y1="437" x2="1220" y2="437" stroke="#111827"/>
<text x="372.5" y="529" text-anchor="middle" font-family="Arial" font-size="17" font-weight="700">Clean model</text>
<rect x="124.6" y="422.2" width="20" height="14.8" fill="#2563eb"/>
<text x="134.6" y="417.2" text-anchor="middle" font-family="Arial" font-size="10" fill="#374151">0.04</text>
<rect x="148.6" y="392.6" width="20" height="44.4" fill="#f97316"/>
<text x="158.6" y="387.6" text-anchor="middle" font-family="Arial" font-size="10" fill="#374151">0.12</text>
<rect x="172.6" y="392.6" width="20" height="44.4" fill="#16a34a"/>
<text x="182.6" y="387.6" text-anchor="middle" font-family="Arial" font-size="10" fill="#374151">0.12</text>
<rect x="196.6" y="392.6" width="20" height="44.4" fill="#dc2626"/>
<text x="206.6" y="387.6" text-anchor="middle" font-family="Arial" font-size="10" fill="#374151">0.12</text>
<text x="160.6" y="465" text-anchor="middle" font-family="Arial" font-size="13" fill="#111827">Symmetric</text>
<rect x="265.9" y="200.3" width="20" height="236.7" fill="#2563eb"/>
<text x="275.9" y="195.3" text-anchor="middle" font-family="Arial" font-size="10" fill="#374151">0.67</text>
<rect x="289.9" y="200.3" width="20" height="236.7" fill="#f97316"/>
<text x="299.9" y="195.3" text-anchor="middle" font-family="Arial" font-size="10" fill="#374151">0.67</text>
<rect x="313.9" y="200.3" width="20" height="236.7" fill="#16a34a"/>
<text x="323.9" y="195.3" text-anchor="middle" font-family="Arial" font-size="10" fill="#374151">0.67</text>
<text x="301.9" y="465" text-anchor="middle" font-family="Arial" font-size="13" fill="#111827">Asymmetric</text>
<text x="301.9" y="481" text-anchor="middle" font-family="Arial" font-size="13" fill="#111827">any</text>
<rect x="407.1" y="200.3" width="20" height="236.7" fill="#2563eb"/>
<text x="417.1" y="195.3" text-anchor="middle" font-family="Arial" font-size="10" fill="#374151">0.67</text>
<rect x="431.1" y="200.3" width="20" height="236.7" fill="#f97316"/>
<text x="441.1" y="195.3" text-anchor="middle" font-family="Arial" font-size="10" fill="#374151">0.67</text>
<rect x="455.1" y="200.3" width="20" height="236.7" fill="#16a34a"/>
<text x="465.1" y="195.3" text-anchor="middle" font-family="Arial" font-size="10" fill="#374151">0.67</text>
<text x="443.1" y="465" text-anchor="middle" font-family="Arial" font-size="13" fill="#111827">Deletion-only</text>
<rect x="548.4" y="437.0" width="20" height="0.0" fill="#2563eb"/>
<rect x="572.4" y="437.0" width="20" height="0.0" fill="#f97316"/>
<rect x="596.4" y="437.0" width="20" height="0.0" fill="#16a34a"/>
<text x="584.4" y="465" text-anchor="middle" font-family="Arial" font-size="13" fill="#111827">Addition-only</text>
<line x1="655.0" y1="82" x2="655.0" y2="502" stroke="#d1d5db" stroke-dasharray="4 4"/>
<text x="937.5" y="529" text-anchor="middle" font-family="Arial" font-size="17" font-weight="700">Robust model</text>
<rect x="689.6" y="407.4" width="20" height="29.6" fill="#2563eb"/>
<text x="699.6" y="402.4" text-anchor="middle" font-family="Arial" font-size="10" fill="#374151">0.08</text>
<rect x="713.6" y="333.5" width="20" height="103.5" fill="#f97316"/>
<text x="723.6" y="328.5" text-anchor="middle" font-family="Arial" font-size="10" fill="#374151">0.29</text>
<rect x="737.6" y="318.7" width="20" height="118.3" fill="#16a34a"/>
<text x="747.6" y="313.7" text-anchor="middle" font-family="Arial" font-size="10" fill="#374151">0.33</text>
<rect x="761.6" y="318.7" width="20" height="118.3" fill="#dc2626"/>
<text x="771.6" y="313.7" text-anchor="middle" font-family="Arial" font-size="10" fill="#374151">0.33</text>
<text x="725.6" y="465" text-anchor="middle" font-family="Arial" font-size="13" fill="#111827">Symmetric</text>
<rect x="830.9" y="229.9" width="20" height="207.1" fill="#2563eb"/>
<text x="840.9" y="224.9" text-anchor="middle" font-family="Arial" font-size="10" fill="#374151">0.58</text>
<rect x="854.9" y="200.3" width="20" height="236.7" fill="#f97316"/>
<text x="864.9" y="195.3" text-anchor="middle" font-family="Arial" font-size="10" fill="#374151">0.67</text>
<rect x="878.9" y="200.3" width="20" height="236.7" fill="#16a34a"/>
<text x="888.9" y="195.3" text-anchor="middle" font-family="Arial" font-size="10" fill="#374151">0.67</text>
<text x="866.9" y="465" text-anchor="middle" font-family="Arial" font-size="13" fill="#111827">Asymmetric</text>
<text x="866.9" y="481" text-anchor="middle" font-family="Arial" font-size="13" fill="#111827">any</text>
<rect x="972.1" y="229.9" width="20" height="207.1" fill="#2563eb"/>
<text x="982.1" y="224.9" text-anchor="middle" font-family="Arial" font-size="10" fill="#374151">0.58</text>
<rect x="996.1" y="200.3" width="20" height="236.7" fill="#f97316"/>
<text x="1006.1" y="195.3" text-anchor="middle" font-family="Arial" font-size="10" fill="#374151">0.67</text>
<rect x="1020.1" y="200.3" width="20" height="236.7" fill="#16a34a"/>
<text x="1030.1" y="195.3" text-anchor="middle" font-family="Arial" font-size="10" fill="#374151">0.67</text>
<text x="1008.1" y="465" text-anchor="middle" font-family="Arial" font-size="13" fill="#111827">Deletion-only</text>
<rect x="1113.4" y="437.0" width="20" height="0.0" fill="#2563eb"/>
<rect x="1137.4" y="437.0" width="20" height="0.0" fill="#f97316"/>
<rect x="1161.4" y="437.0" width="20" height="0.0" fill="#16a34a"/>
<text x="1149.4" y="465" text-anchor="middle" font-family="Arial" font-size="13" fill="#111827">Addition-only</text>
<text x="335" y="570" font-family="Arial" font-size="14" font-weight="700">Noise:</text>
<rect x="405" y="556" width="18" height="18" fill="#2563eb"/>
<text x="431" y="570" font-family="Arial" font-size="14" fill="#111827">0.02</text>
<rect x="530" y="556" width="18" height="18" fill="#f97316"/>
<text x="556" y="570" font-family="Arial" font-size="14" fill="#111827">0.05</text>
<rect x="655" y="556" width="18" height="18" fill="#16a34a"/>
<text x="681" y="570" font-family="Arial" font-size="14" fill="#111827">0.1</text>
<rect x="780" y="556" width="18" height="18" fill="#dc2626"/>
<text x="806" y="570" font-family="Arial" font-size="14" fill="#111827">0.2</text>
<text transform="translate(28 259.5) rotate(-90)" text-anchor="middle" font-family="Arial" font-size="16">Certified accuracy at radius &gt;= 1</text>
<text x="660.0" y="592" text-anchor="middle" font-family="Arial" font-size="12" fill="#4b5563">Asymmetric any includes deletion-only budgets; addition-only is shown separately.</text>
</svg>